<?xml version="1.0" encoding="utf-8"?>
<!-- Generator: Adobe Illustrator 23.0.0, SVG Export Plug-In . SVG Version: 6.00 Build 0)  -->
<svg version="1.1" id="Layer_1" xmlns="http://www.w3.org/2000/svg" xmlns:xlink="http://www.w3.org/1999/xlink" x="0px" y="0px"
	 viewBox="0 0 864 864" style="enable-background:new 0 0 864 864;" xml:space="preserve">
<style type="text/css">
	.st0{fill:#69DDE2;}
	.st1{fill:url(#SVGID_1_);}
	.st2{fill:url(#SVGID_2_);}
	.st3{fill:url(#SVGID_3_);}
	.st4{fill:none;stroke:#000000;stroke-width:0.5;stroke-linecap:round;stroke-linejoin:round;}
</style>
<circle class="st0" cx="432" cy="432" r="432"/>
<g>
	<g id="XMLID_1_">
		<g>
			<linearGradient id="SVGID_1_" gradientUnits="userSpaceOnUse" x1="431.9988" y1="450.0012" x2="431.9988" y2="-43.7857">
				<stop  offset="0" style="stop-color:#FF423D"/>
				<stop  offset="0.1147" style="stop-color:#FF564E"/>
				<stop  offset="0.2825" style="stop-color:#FE6B61"/>
				<stop  offset="0.4682" style="stop-color:#FE7A6E"/>
				<stop  offset="0.6839" style="stop-color:#FE8376"/>
				<stop  offset="1" style="stop-color:#FE8678"/>
			</linearGradient>
			<path class="st1" d="M397.2,519.5c-2.8-6.7-5.8-13.4-6.3-20.8c-0.2-3.2-1.4-4.4-4.6-2.7c-5.9,3-9.8,8.2-14.2,12.9
				c-2.1,2.3-4.1,4.7-7.8,4c-10.4,12.5-38.1,68.9-45.7,83.3c-3,5.6-6.5,10.9-9.2,16.7c-0.8,1.6-1.4,3.3-2,5
				c-1.2,3.5-0.6,5.2,2.8,6.5c2.5,0.9,4.9,1.9,7.4,2.8c11.9,4.5,23.8,9.1,35.5,13.9c6.9,2.8,13.7,6.1,20.5,9.4
				c7.8,4.9,15.6,9,23.4,12.9c2.6-30.4,1.8-103.8,0.8-123C397.3,533.6,397.3,526.6,397.2,519.5z M393,693.4
				c-0.5-2.4-1.1-4.6-1.2-7.1c-0.2-3.3,1.3-6.2,3.6-8.4c-0.9-0.3-1.8-0.5-2.8-0.7c-2.7-2.8-6.4-4.9-11-5.6c-1.7-1-3.6-1.7-5.7-2.2
				c0,0,0-0.1,0-0.1c-0.7-0.9-1.7-1.5-3-2c-13.6-4.9-27.1-10.4-41.1-14.2c-10.8-2.9-21.3-6.7-32.1-9.5c-2.9-0.8-5.9-1.4-8.8-2
				c-4.1-0.8-8.1-1.7-12-3.4c-3.4-1.5-5-3.9-5.1-7.5c-0.1-5,2-9,4.9-12.9c2-2.6,4.1-5.9,6.3-9.5c6.9-11.4,31.3-56.8,36.9-65.5
				c8.4-13,17-25.9,24.2-39.6c-1.1-2-1.3-3.8-0.2-6c3.8-7.8,5.1-16,4.3-24.7c-0.2-2.8-1.3-4.6-4.2-4.8c-3.1-0.3-6-1.3-8.9-2.1
				c-8.2-2.3-16.1-5.5-23.1-10.6c-12.4-9.1-24.5-18.6-38.1-26.1c-10.3-5.7-20.8-7.9-31.7-1.8c-1.8,1-4,1.9-3.4,4.7
				c-1.8-0.5-2.5,1-3.1,2c-4.6,8-11.4,14.2-16.9,21.4c-1.9,2.4-5.1,3.4-8.2,2c-3-1.3-2.1-4.3-2.2-6.8c-0.1-1.5,1.4-2,1.8-3.5
				c0.9-3.1,0.2-7.5,2-9.2c3.8-3.5,4.9-8.5,8.8-11.9c1.8-1.6,4.1-3.6,4.9-7c-7,6.4-13.5,12.5-20.1,18.2c-3.4,2.9-5.7,7-10.1,8.7
				c-2.2,0.8-4.6,1.2-6.6,0.1c-1-0.5-1.5-2.1-1.4-3.6c0.9-9.3,4.6-17.2,11.2-23.8c0.8-0.7,1.8-1.4,1.8-2.6c0-0.1,0-0.2,0-0.4l0,0
				c-4.2,1.7-8.6,2.2-13,2.2c-4.5,0.1-5.8-2.4-3.5-6.3c0.6-0.9,1.1-1.9,1.9-2.6c7.5-7.6,15.9-14.1,25.2-19.4
				c9.1-5.2,18-10.8,26.1-17.6c13.5-11.3,25-24.7,38-36.6c8-7.3,16-14.5,25.2-20.1c14.7-8.9,30.9-13.8,47.4-17.9
				c21.1-5.2,42.5-4.9,63.9-2.6c12.7,1.4,25.3,3.5,37.8,6c13.6,2.7,25.8,9,36.7,17.5c2,1.6,5.1,1,6.2,3.1
				c3.7,6.7,11.2,9.9,14.9,16.6c2.3,4.3,6.1,7.9,8.9,11.9c5.7,8.2,10.4,17,19.5,22.3c3.4,2,6.4,2.3,9.5,0.8
				c10.2-5,15.5-15.6,13.8-27.4c-0.8-5.5-1.7-10.8-3.3-16.2c-2.1-6.8-3.5-13.7-7.6-19.6c-0.3-0.2-0.6-0.5-0.9-0.7
				c-1.1-6-3.3-11.4-7.7-15.9c0,0,0,0,0,0c0,0,0,0,0,0c2-0.7,0.8-1.9,0.4-2.8c-4.8-10.3-9.7-20.5-14.4-30.8
				c-5.1-11.1-22.5-39.4-25.5-51.2c-2.5-9.9-4.6-19.9-5.8-30.1c-1.5-12.7-1-25.2,0-37.9c1.1-14.1,3.6-28.1,7.7-41.5
				c2.3-7.5,5.3-15.4,10.2-22.4c9.5-13.4,19.6-26,34.6-33.4c5.6-2.8,11.8-4.1,18.3-5.6c12.2-3,23.1,0.1,23.5,0.1
				c1.7,0.9,7.5,3,9.1,4.3c8,6.5,15.9,12.9,20.8,22.2c1.3,2.4,2.8,4.8,4,7.2c1.2,2.5,2.2,5,2.5,7.8c3.1,0.6,5.9,1.8,8.5,3.4
				c12.7,7.8,24.3,16.9,33.2,29.1c5.3,7.2,9.7,14.9,9.4,24.3c0,0,0,0,0-0.1c0.5,3.3,0.8,6.2,0.7,7.2c-1.1,14.3-6.3,27.2-13.2,39.5
				c-4.2,7.4-10.4,12.6-18.6,15.3c-4.4,1.4-4.7,1.3-4-3.4c1.8-12.7,0.8-25-4.6-36.7c-0.9-2-2.7-3.8-2.4-6.3
				c-0.5-0.4-1.1-0.8-1.5-1.3c-6-8.5-13.1-15.7-22-21.4c-2.2-1.4-5.2-1.7-6.8-4c-6-0.3-12.1,1.4-17.8-1.9c-6-3.4-10.5-8.5-14.8-13.6
				c-4.2-4.9-13.9-7.1-19.2-4.8c-1.5,0.6-2.8,1.6-4.3,2.1c-6.8,2.7-12,7.6-15.8,13.4c-3.7,5.7-6.9,11.6-8.7,18.6
				c-2.2,9-3,17.8-1.9,26.9c0.6,5,1.8,10.1,2.2,15c0.5,5.6,1.1,11.2,2.6,16.4c4.1,14.3,24.3,44.4,31.5,57.4
				c10.1,18.5,20.9,36.6,29.7,55.8c10.6,23.3,18.1,47.3,15,73.5c-1.2,10.5-4,20.6-10,29.2c-14.2,20.3-32.6,35.2-56.9,41.9
				c-2.2,0.6-3.2,3.1-5.9,3c-14.9-0.9-28.6,3.8-41.9,9.8c-15.4,7-31.2,12.6-48,15c-2.4,0.3-3.7,1.4-5.3,2.9
				c-6.1,5.5-7,13.4-8.9,20.5c-2.4,9.2-1.8,9.5-8.8,16.4c-0.3,0.3-0.4,1-0.6,1.5c-0.2,1-0.4,1.9-0.6,2.9c-0.3,1.9-0.7,3.8-1.1,5.7
				c-0.1,0.8-0.2,1.5-0.3,2.3c0.1,2.9-0.5,5.7-1.2,8.4c-0.8,12.8-3,93.1-2.3,105.9c0.5,7.9,1.5,15.8,1.9,23.7c0,0.5,0,1.1,0.1,1.6
				c5.3,3.1,10.7,6.1,16.2,8.8c6.8,3.3,9.3,8.4,10.2,15.2c1.6,12.2,4.4,24,9.5,35.3c3.1,6.9,5.7,14.3,5.7,22.2
				c0,6.4-11.7,1.4-12.4-1c-0.7-2.2-1.6-4.3-2.4-6.4c-2.5-6.6-5.7-12.8-9.3-18.8c-1.8-2.9-3.3-2.2-4.7,0.2c-1.3,2.4-2.2,4.9-4,7
				c-1.1,1.3-2.2,2.6-4,1.9c-1.7-0.7-1.9-2.4-2.1-4c-0.6-5.6,1.9-10.2,4.2-15c2.7-5.5,5-11.1,4.8-17.3c-0.1-7.3-1.7-13.3-10-15.6
				c-0.1,0-0.3-0.1-0.4-0.1c0.1,0.5,0.2,1.1,0.2,1.4c0.5,1.9,0.7,3.8,0.8,5.7c0.2,3.4-0.7,7-1.2,10.4c-0.2,0.9-0.5,1.7-0.8,2.5
				c0.1,0,0.2,0,0.3,0c-0.2,0-0.3,0.1-0.5,0.2c-0.3,0.5-0.6,1.1-1,1.5c-0.1,0.3-0.1,0.5-0.2,0.9c-0.2,2.3-0.4,4.6-0.7,6.9
				c-0.9,9.2-1.8,18.5-2.2,27.7c-1.4,26.1,2,52,2.7,78.1c0.2,8.6,2.8,17.1,11.1,20.7c9.5,4.2,19.8,7,29.9,9.4
				c5.7,1.4,11.8,0.8,17.8,1.1c1.5,0.1,3,0.2,4.4,0.5c1.6,0.3,2.1,1.8,2,3.1c-0.1,1.5-1.5,3.5-2.5,3.2c-4.7-1.2-9.4,0.2-14-0.6
				c-2.9-0.5-6.3-1.5-7.5,3c-0.3,1-1.6,1.3-2.7,1.5c-2.7,0.5-5.3,0.7-8.1,0.5c-7.7-0.5-15.4-1-23-1.3c-4.9-0.2-9.7,0.2-14.6,0.4
				c-8.8,0.5-11.7-1.7-8.2-9.7c2.8-6.4,1.2-11.5-2.7-16.5c-2.2-2.8-2.3-5.4,0.1-7.9c1.5-1.5,2-3.4,2.4-5.4
				c1.3-6.7,1.7-13.4,1.4-20.2c-0.6-16-3.2-32-1.9-48.1c1.1-14.5-1.1-28.6-2.7-42.9c-0.2-2.3-0.5-4.6-0.7-6.9
				c-1.1-2.5-1.4-5.3-0.9-8.2c0-0.2,0.1-0.9,0.2-1.5C392.9,694.7,392.8,692.8,393,693.4z M645.4,144.7c0,0-0.4-0.2-0.6-0.4
				c-0.7,0.2-1.3,0.5-1.9,0.8C643.6,144.8,644.4,144.7,645.4,144.7z M627,79c-0.2,0.1-0.3,0.2-0.5,0.4C626.7,79.2,626.9,79.1,627,79
				z M415.4,686c0,0.1,0,0.2,0,0.4C415.5,686.2,415.5,686.1,415.4,686C415.5,686,415.4,686,415.4,686z"/>
			<linearGradient id="SVGID_2_" gradientUnits="userSpaceOnUse" x1="541.56" y1="292.8955" x2="541.56" y2="292.5555">
				<stop  offset="0" style="stop-color:#FF423D"/>
				<stop  offset="0.1147" style="stop-color:#FF564E"/>
				<stop  offset="0.2825" style="stop-color:#FE6B61"/>
				<stop  offset="0.4682" style="stop-color:#FE7A6E"/>
				<stop  offset="0.6839" style="stop-color:#FE8376"/>
				<stop  offset="1" style="stop-color:#FE8678"/>
			</linearGradient>
			<path class="st2" d="M541.7,292.7c0,0.1,0,0.2,0,0.4c-0.1,0-0.2-0.1-0.3-0.1C541.5,292.9,541.6,292.8,541.7,292.7z"/>
			<linearGradient id="SVGID_3_" gradientUnits="userSpaceOnUse" x1="240.86" y1="431.8255" x2="240.86" y2="431.7255">
				<stop  offset="0" style="stop-color:#FF423D"/>
				<stop  offset="0.1147" style="stop-color:#FF564E"/>
				<stop  offset="0.2825" style="stop-color:#FE6B61"/>
				<stop  offset="0.4682" style="stop-color:#FE7A6E"/>
				<stop  offset="0.6839" style="stop-color:#FE8376"/>
				<stop  offset="1" style="stop-color:#FE8678"/>
			</linearGradient>
			<polygon class="st3" points="240.8,431.8 240.9,431.9 240.8,431.8 			"/>
		</g>
		<g>
			<path class="st4" d="M393.1,693.6c0,0,0-0.1,0-0.1c-0.2-0.7-0.1,1.3-0.2,2.3c-0.1,0.6-0.2,1.3-0.2,1.5c-0.5,2.9-0.2,5.8,0.9,8.2
				c0.2,2.3,0.5,4.6,0.7,6.9c1.6,14.2,3.8,28.4,2.7,42.9c-1.3,16.1,1.3,32.1,1.9,48.1c0.2,6.8-0.1,13.5-1.4,20.2
				c-0.4,2-0.9,3.9-2.4,5.4c-2.5,2.5-2.3,5.1-0.1,7.9c3.9,4.9,5.5,10.1,2.7,16.5c-3.4,8-0.5,10.1,8.2,9.7c4.9-0.2,9.7-0.6,14.6-0.4
				c7.7,0.3,15.4,0.9,23,1.3c2.7,0.2,5.4,0,8.1-0.5c1.1-0.2,2.4-0.5,2.7-1.5c1.2-4.5,4.6-3.5,7.5-3c4.7,0.8,9.4-0.6,14,0.6
				c0.9,0.2,2.4-1.7,2.5-3.2c0.1-1.3-0.4-2.8-2-3.1c-1.4-0.3-2.9-0.5-4.4-0.5c-5.9-0.3-12.1,0.3-17.8-1.1
				c-10.2-2.4-20.4-5.2-29.9-9.4c-8.3-3.6-10.9-12.1-11.1-20.7c-0.8-26-4.1-52-2.7-78.1c0.5-9.2,1.3-18.5,2.2-27.7
				c0.2-2.3,0.4-4.6,0.7-6.9c0-0.4,0.1-0.6,0.2-0.9c0.4-0.5,0.7-1,1-1.5c0.1-0.1,0.3-0.2,0.5-0.2c-0.1,0-0.2,0-0.3,0
				c0.4-0.8,0.7-1.6,0.8-2.5c0.6-3.4,1.4-7,1.2-10.4c-0.1-1.9-0.3-3.9-0.8-5.7c-0.1-0.3-0.2-0.9-0.2-1.4c0.1,0,0.3,0.1,0.4,0.1
				c8.4,2.3,9.9,8.4,10,15.6c0.1,6.2-2.2,11.9-4.8,17.3c-2.3,4.8-4.8,9.4-4.2,15c0.2,1.7,0.4,3.3,2.1,4c1.9,0.8,3-0.6,4-1.9
				c1.7-2.1,2.7-4.7,4-7c1.3-2.5,2.9-3.1,4.7-0.2c3.6,6,6.8,12.2,9.3,18.8c0.8,2.1,1.7,4.2,2.4,6.4c0.8,2.4,12.4,7.4,12.4,1
				c0-7.9-2.5-15.3-5.7-22.2c-5.1-11.3-7.9-23.1-9.5-35.3c-0.9-6.8-3.4-11.9-10.2-15.2c-5.5-2.7-10.9-5.7-16.2-8.8
				c0-0.5,0-1.1-0.1-1.6c-0.4-7.9-1.5-15.8-1.9-23.7c-0.7-12.8,1.5-93.2,2.3-105.9c0.8-2.8,1.4-5.5,1.2-8.4c0.1-0.8,0.2-1.5,0.3-2.3
				c0.4-1.9,0.7-3.8,1.1-5.7c0.2-1,0.4-1.9,0.6-2.9c0.2-0.5,0.3-1.1,0.6-1.5c7-6.9,6.4-7.2,8.8-16.4c1.9-7.1,2.7-15,8.9-20.5
				c1.6-1.5,2.9-2.5,5.3-2.9c16.8-2.4,32.6-8,48-15c13.3-6,27-10.7,41.9-9.8c2.8,0.2,3.7-2.4,5.9-3c24.3-6.7,42.7-21.6,56.9-41.9
				c6-8.6,8.8-18.7,10-29.2c3.1-26.2-4.4-50.2-15-73.5c-8.7-19.2-19.5-37.3-29.7-55.8c-7.1-13-27.4-43.1-31.5-57.4
				c-1.5-5.2-2.2-10.8-2.6-16.4c-0.4-4.9-1.6-9.9-2.2-15c-1.1-9.1-0.3-17.8,1.9-26.9c1.7-7,5-13,8.7-18.6c3.8-5.8,9-10.8,15.8-13.4
				c1.5-0.6,2.8-1.5,4.3-2.1c5.3-2.3,15,0,19.2,4.8c4.3,5.1,8.8,10.2,14.8,13.6c5.8,3.3,11.8,1.7,17.8,1.9c1.7,2.3,4.6,2.6,6.8,4
				c8.8,5.7,16,12.9,22,21.4c0.4,0.5,1,0.9,1.5,1.3c-0.2,2.5,1.5,4.3,2.4,6.3c5.4,11.8,6.4,24.1,4.6,36.7c-0.7,4.7-0.4,4.8,4,3.4
				c8.2-2.6,14.4-7.8,18.6-15.3c7-12.3,12.1-25.2,13.2-39.5c0.1-1-0.2-3.9-0.7-7.2c0,0,0,0,0,0.1c0.3-9.4-4.1-17.1-9.4-24.3
				c-8.9-12.2-20.5-21.3-33.2-29.1c-2.6-1.6-5.5-2.8-8.5-3.4c-0.3-2.8-1.2-5.4-2.5-7.8c-1.2-2.4-2.7-4.8-4-7.2
				c-4.9-9.3-12.8-15.7-20.8-22.2c-1.6-1.3-7.4-3.4-9.1-4.3c-0.4,0-11.2-3.1-23.5-0.1c-6.5,1.6-12.6,2.9-18.3,5.6
				c-15,7.4-25.1,20-34.6,33.4c-4.9,7-7.9,14.9-10.2,22.4c-4.1,13.3-6.6,27.3-7.7,41.5c-1,12.7-1.5,25.3,0,37.9
				c1.2,10.2,3.2,20.2,5.8,30.1c3,11.8,20.5,40.1,25.5,51.2c4.7,10.3,9.6,20.5,14.4,30.8c0.4,0.9,1.6,2.2-0.4,2.8c0,0,0,0,0,0
				c0,0,0,0,0,0c4.3,4.4,6.6,9.9,7.7,15.9c0.3,0.2,0.6,0.5,0.9,0.7c0.1-0.2,0.3-0.3,0.5-0.5c0.3-0.3,0.5-0.6,0.5-0.9c0,0,0,0,0,0"/>
			<path class="st4" d="M550.3,309.7c4.2,5.9,5.6,12.8,7.6,19.6c1.6,5.4,2.5,10.7,3.3,16.2c1.8,11.8-3.6,22.4-13.8,27.4
				c-3.1,1.5-6.1,1.2-9.5-0.8c-9.1-5.3-13.8-14.1-19.5-22.3c-2.8-4.1-6.6-7.6-8.9-11.9c-3.7-6.8-11.1-10-14.9-16.6
				c-1.2-2.1-4.2-1.5-6.2-3.1c-10.9-8.4-23.1-14.8-36.7-17.5c-12.5-2.5-25.1-4.6-37.8-6c-21.5-2.3-42.8-2.6-63.9,2.6
				c-16.5,4.1-32.7,9-47.4,17.9c-9.3,5.6-17.2,12.8-25.2,20.1c-13,11.9-24.5,25.2-38,36.6c-8.1,6.8-17,12.3-26.1,17.6
				c-9.3,5.4-17.6,11.9-25.2,19.4c-0.8,0.8-1.3,1.7-1.9,2.6c-2.3,3.9-1.1,6.4,3.5,6.3c4.4-0.1,8.8-0.5,13-2.2l0,0c0,0.1,0,0.3,0,0.4
				c0,1.2-1,1.8-1.8,2.6c-6.6,6.6-10.3,14.5-11.2,23.8c-0.1,1.4,0.4,3,1.4,3.6c2.1,1.1,4.4,0.7,6.6-0.1c4.4-1.7,6.8-5.8,10.1-8.7
				c6.6-5.8,13.1-11.8,20.1-18.2c-0.9,3.5-3.1,5.4-4.9,7c-3.8,3.4-5,8.4-8.8,11.9c-1.8,1.7-1.1,6-2,9.2c-0.4,1.4-1.8,2-1.8,3.5
				c0.1,2.5-0.8,5.5,2.2,6.8c3.1,1.4,6.3,0.4,8.2-2c5.5-7.2,12.3-13.4,16.9-21.4c0.6-1,1.3-2.5,3.1-2c-0.5-2.8,1.7-3.7,3.4-4.7
				c10.9-6.2,21.4-3.9,31.7,1.8c13.5,7.5,25.6,17,38.1,26.1c7,5.1,14.8,8.2,23.1,10.6c2.9,0.8,5.8,1.8,8.9,2.1c2.9,0.3,4,2,4.2,4.8
				c0.8,8.6-0.5,16.9-4.3,24.7c-1.1,2.2-0.9,4.1,0.2,6c-7.2,13.7-15.8,26.6-24.2,39.6c-5.6,8.8-30.1,54.1-36.9,65.5
				c-2.2,3.6-4.3,6.9-6.3,9.5c-3,3.9-5,7.9-4.9,12.9c0.1,3.7,1.7,6.1,5.1,7.5c3.9,1.7,7.9,2.6,12,3.4c3,0.6,5.9,1.2,8.8,2
				c10.8,2.8,21.3,6.6,32.1,9.5c14,3.8,27.5,9.2,41.1,14.2c1.3,0.5,2.3,1.1,3,2c0,0,0,0.1,0,0.1c2.1,0.5,4,1.2,5.7,2.2
				c4.6,0.8,8.2,2.8,11,5.6c1,0.2,1.9,0.4,2.8,0.7c-2.3,2.2-3.8,5.1-3.6,8.4c0.1,2.5,0.8,4.8,1.2,7.1"/>
			<line class="st4" x1="203.4" y1="414.9" x2="203.5" y2="415"/>
			<path class="st4" d="M203.7,415.3c-0.2,0.1-0.4,0.1-0.7,0.2"/>
			<path class="st4" d="M407.9,518c-0.1-0.3-0.1-0.7-0.3-1"/>
			<path class="st4" d="M397.2,519.5c1.2-0.2,2.6-0.1,2.6-1.9c0-1.1,0.2-2.2,0.7-3"/>
			<path class="st4" d="M373.5,650.7c-6.7-3.3-13.5-6.6-20.5-9.4c-11.8-4.8-23.7-9.4-35.5-13.9c-2.5-0.9-4.9-1.9-7.4-2.8
				c-3.4-1.3-4-3-2.8-6.5c0.6-1.7,1.3-3.4,2-5c2.7-5.8,6.2-11.1,9.2-16.7c7.7-14.5,35.3-70.8,45.7-83.3c3.7,0.8,5.7-1.7,7.8-4
				c4.4-4.7,8.2-9.9,14.2-12.9c3.3-1.7,4.4-0.5,4.6,2.7c0.6,7.4,3.5,14.1,6.3,20.8c0.1,7,0.1,14.1,0.4,21.1c1,19.2,1.8,92.6-0.8,123
				C389.1,659.7,381.3,655.6,373.5,650.7z"/>
			<path class="st4" d="M415.5,686.3c0-0.1,0-0.2,0-0.4c0,0,0,0,0,0C415.5,686.1,415.5,686.2,415.5,686.3z"/>
			<path class="st4" d="M414.4,514.4c0.2-0.4,0.4-0.8,0.6-1.2c0.5,0.2,0.9,0.4,1.3,0.7"/>
			<path class="st4" d="M626.5,79.4c0.2-0.1,0.4-0.2,0.5-0.4C626.9,79.1,626.7,79.2,626.5,79.4z"/>
			<path class="st4" d="M608.5,115.7c-0.2,1.6-0.5,3.1-1,4.5"/>
			<path class="st4" d="M642.9,145c0.6-0.3,1.2-0.6,1.9-0.8c0.2,0.2,0.6,0.4,0.6,0.4C644.4,144.7,643.6,144.8,642.9,145z"/>
			<path class="st4" d="M541.4,293c0.1,0,0.2,0.1,0.3,0.1c0-0.1,0-0.2,0-0.4C541.6,292.8,541.5,292.9,541.4,293z"/>
			<polygon class="st4" points="240.8,431.8 240.9,431.9 240.8,431.8 			"/>
		</g>
	</g>
</g>
</svg>
